<?xml version="1.0" standalone="no"?>
<!DOCTYPE svg PUBLIC "-//W3C//DTD SVG 20010904//EN"
 "http://www.w3.org/TR/2001/REC-SVG-20010904/DTD/svg10.dtd">
<svg version="1.0" xmlns="http://www.w3.org/2000/svg"
 width="512.000000pt" height="512.000000pt" viewBox="0 0 512.000000 512.000000"
 preserveAspectRatio="xMidYMid meet">
<metadata>
Created by potrace 1.14, written by Peter Selinger 2001-2017
</metadata>
<g transform="translate(0.000000,512.000000) scale(0.100000,-0.100000)"
fill="#000000" stroke="none">
<path d="M2495 5003 c-33 -58 -74 -132 -91 -162 -81 -147 -260 -471 -282 -511
-145 -258 -330 -595 -329 -597 2 -1 36 7 77 18 138 36 415 107 443 113 28 7
28 6 23 -31 -3 -21 -8 -76 -12 -123 -3 -47 -8 -105 -9 -130 -2 -25 -7 -81 -10
-125 -3 -44 -8 -96 -10 -115 -2 -19 -7 -73 -10 -120 -3 -47 -8 -105 -10 -130
-5 -55 -12 -141 -20 -235 -3 -38 -8 -95 -11 -125 -2 -30 -6 -86 -9 -125 -2
-38 -7 -95 -10 -125 -3 -30 -7 -83 -10 -117 -8 -101 -21 -252 -30 -360 -3 -32
-7 -86 -10 -121 -10 -118 -61 -214 -145 -271 -92 -63 -97 -64 -515 -65 -209
-1 -407 2 -440 6 -79 11 -169 56 -229 114 -117 116 -147 260 -101 487 10 49
53 155 93 230 22 39 89 164 149 277 61 113 125 232 143 265 72 133 139 273
159 335 45 141 48 194 50 785 l1 560 -61 -65 c-107 -113 -315 -334 -350 -371
-19 -20 -92 -98 -164 -174 -71 -76 -156 -166 -187 -199 -31 -33 -56 -61 -55
-63 1 -1 90 21 197 48 107 27 198 49 202 49 9 0 3 -330 -6 -375 -18 -85 -62
-179 -198 -425 -14 -25 -47 -85 -73 -135 -27 -49 -59 -110 -73 -135 -208 -375
-262 -549 -257 -825 2 -77 5 -152 9 -167 7 -34 15 -74 22 -113 8 -40 40 -127
75 -203 16 -35 29 -65 29 -67 0 -12 71 -119 125 -190 67 -86 155 -171 256
-247 49 -36 212 -122 279 -147 50 -18 185 -57 203 -59 4 0 31 -3 60 -7 28 -3
75 -8 102 -10 28 -2 55 -4 60 -4 6 -1 10 -59 10 -155 l1 -155 -73 0 c-119 0
-186 -41 -222 -135 -33 -89 5 -196 88 -248 l36 -23 1185 0 c1162 0 1186 0
1215 20 121 79 143 219 50 324 -37 41 -95 61 -180 64 l-70 2 0 153 c-1 130 1
152 15 153 8 1 33 2 55 4 129 7 234 29 350 72 386 143 675 460 775 851 28 111
32 142 35 293 3 146 -15 273 -56 399 -23 71 -102 238 -172 365 -24 44 -65 121
-92 170 -26 50 -76 142 -110 205 -172 317 -176 329 -180 573 -2 97 0 177 4
177 4 0 34 -7 66 -16 33 -8 67 -17 75 -19 19 -4 139 -34 163 -40 9 -3 26 -7
38 -10 11 -2 30 -7 42 -11 23 -7 21 -4 -83 106 -74 79 -270 287 -305 325 -74
79 -321 341 -368 390 l-47 50 3 -585 c2 -322 6 -592 9 -600 3 -8 8 -33 12 -55
21 -113 72 -230 208 -480 36 -66 89 -165 118 -220 29 -55 75 -139 101 -186
119 -215 159 -335 164 -483 4 -147 -28 -235 -122 -330 -25 -26 -67 -58 -92
-70 -97 -48 -120 -50 -551 -50 -391 1 -407 2 -461 23 -96 37 -185 132 -209
223 -10 37 -17 93 -26 213 -3 44 -8 98 -10 120 -1 22 -6 76 -9 120 -3 44 -7
100 -10 125 -3 25 -7 77 -10 115 -7 89 -13 165 -20 235 -3 30 -7 87 -10 125
-10 129 -15 200 -20 250 -2 28 -7 86 -10 130 -4 44 -8 94 -10 110 -2 17 -6 73
-10 125 -4 52 -8 111 -10 130 -7 73 -18 216 -19 245 -1 38 3 38 159 -4 66 -18
172 -45 235 -62 63 -16 124 -32 134 -35 16 -5 11 8 -24 72 -24 44 -54 97 -66
119 -17 31 -434 782 -594 1070 -54 96 -65 115 -70 115 -3 0 -32 -48 -65 -107z"/>
</g>
</svg>
